<svg width="60" height="11" viewBox="0 0 60 11" fill="none" xmlns="http://www.w3.org/2000/svg">
<path d="M3.88 10.168C1.952 10.168 0.988 9.468 0.988 8.068C0.988 7.852 1.012 7.62 1.06 7.372L1.216 6.484H3.376L3.304 6.88C3.272 7.08 3.256 7.284 3.256 7.492C3.256 7.7 3.308 7.872 3.412 8.008C3.572 8.208 3.836 8.308 4.204 8.308C4.572 8.308 4.868 8.208 5.092 8.008C5.324 7.808 5.488 7.44 5.584 6.904L6.568 1.348H8.716L7.708 7.072C7.524 8.136 7.124 8.92 6.508 9.424C5.892 9.92 5.016 10.168 3.88 10.168ZM14.63 8.152C14.63 8.36 14.734 8.464 14.942 8.464C15.158 8.464 15.338 8.424 15.482 8.344L15.422 9.7C15.038 10.012 14.606 10.168 14.126 10.168C13.222 10.168 12.73 9.82 12.65 9.124C12.17 9.82 11.522 10.168 10.706 10.168C9.89803 10.168 9.37403 9.984 9.13403 9.616C8.97403 9.384 8.89403 9.12 8.89403 8.824C8.89403 8.528 8.91803 8.256 8.96603 8.008L9.63803 4.228H11.678L11.114 7.42C11.09 7.564 11.078 7.708 11.078 7.852C11.078 8.236 11.294 8.428 11.726 8.428C12.086 8.428 12.374 8.304 12.59 8.056L13.274 4.228H15.314L14.642 8.008C14.634 8.056 14.63 8.104 14.63 8.152ZM22.2288 5.476C22.2288 5.74 22.1488 5.984 21.9888 6.208H20.0208C20.0848 6.16 20.1168 6.08 20.1168 5.968C20.1168 5.856 20.0528 5.768 19.9248 5.704C19.7968 5.632 19.6328 5.596 19.4328 5.596C18.8328 5.596 18.5328 5.78 18.5328 6.148C18.5328 6.292 18.6448 6.396 18.8688 6.46C19.0928 6.524 19.3648 6.576 19.6848 6.616C20.0048 6.656 20.3248 6.716 20.6448 6.796C20.9648 6.868 21.2368 7.016 21.4608 7.24C21.6848 7.464 21.7968 7.764 21.7968 8.14C21.7968 8.804 21.5288 9.308 20.9928 9.652C20.4648 9.996 19.6928 10.168 18.6768 10.168C17.6608 10.168 16.9488 10.004 16.5408 9.676C16.2208 9.42 16.0608 9.068 16.0608 8.62C16.0608 8.492 16.0728 8.36 16.0968 8.224L18.1008 8.2C18.0848 8.312 18.1488 8.412 18.2928 8.5C18.4448 8.58 18.6648 8.62 18.9528 8.62C19.2408 8.62 19.4488 8.592 19.5768 8.536C19.7048 8.472 19.7688 8.356 19.7688 8.188C19.7688 8.076 19.6568 8 19.4328 7.96C19.2088 7.912 18.9328 7.872 18.6048 7.84C18.2848 7.808 17.9608 7.756 17.6328 7.684C17.3128 7.612 17.0408 7.46 16.8168 7.228C16.5928 6.996 16.4808 6.692 16.4808 6.316C16.4808 5.588 16.7608 5.028 17.3208 4.636C17.8888 4.244 18.7048 4.048 19.7688 4.048C21.4088 4.048 22.2288 4.524 22.2288 5.476ZM25.3828 10.168C24.4548 10.168 23.7868 9.96 23.3788 9.544C23.0748 9.24 22.9228 8.832 22.9228 8.32C22.9228 8.152 22.9388 7.972 22.9708 7.78L23.7868 3.136L25.9828 2.224L25.6348 4.228H28.9468L28.6468 5.92H25.3348L25.0948 7.276C25.0628 7.428 25.0468 7.564 25.0468 7.684C25.0468 8.188 25.2868 8.44 25.7668 8.44C26.0228 8.44 26.2348 8.332 26.4028 8.116C26.5788 7.9 26.6988 7.612 26.7628 7.252H28.7548C28.4188 9.196 27.2948 10.168 25.3828 10.168ZM37.9115 8.152C37.9115 8.36 38.0155 8.464 38.2235 8.464C38.4395 8.464 38.6195 8.424 38.7635 8.344L38.7035 9.7C38.3195 10.012 37.8875 10.168 37.4075 10.168C36.5275 10.168 36.0395 9.848 35.9435 9.208C35.5435 9.848 34.9555 10.168 34.1795 10.168C32.8675 10.168 32.2115 9.604 32.2115 8.476C32.2115 8.284 32.2315 8.072 32.2715 7.84L32.5235 6.436C32.6515 5.716 32.9435 5.144 33.3995 4.72C33.8635 4.288 34.5035 4.072 35.3195 4.072C35.8235 4.072 36.2235 4.18 36.5195 4.396L37.1315 0.891999H39.1835L37.9235 8.008C37.9155 8.056 37.9115 8.104 37.9115 8.152ZM34.3595 7.576C34.3435 7.648 34.3355 7.748 34.3355 7.876C34.3355 8.004 34.3955 8.132 34.5155 8.26C34.6355 8.38 34.8355 8.44 35.1155 8.44C35.4035 8.44 35.6515 8.328 35.8595 8.104L36.2195 6.088C36.1315 5.888 35.9235 5.788 35.5955 5.788C34.9795 5.788 34.6195 6.084 34.5155 6.676L34.3595 7.576ZM43.2778 4.06C44.1418 4.06 44.7938 4.248 45.2338 4.624C45.5778 4.92 45.7498 5.332 45.7498 5.86C45.7498 6.036 45.7298 6.228 45.6898 6.436L45.4378 7.84C45.2858 8.688 44.9298 9.288 44.3698 9.64C43.8178 9.992 43.0778 10.168 42.1498 10.168C41.2218 10.168 40.5418 9.992 40.1098 9.64C39.7898 9.376 39.6298 8.98 39.6298 8.452C39.6298 8.268 39.6498 8.064 39.6898 7.84L39.9418 6.436C40.2218 4.852 41.3338 4.06 43.2778 4.06ZM43.6018 6.676C43.6178 6.596 43.6258 6.496 43.6258 6.376C43.6258 6.248 43.5738 6.108 43.4698 5.956C43.3658 5.804 43.1818 5.728 42.9178 5.728C42.6618 5.728 42.4458 5.816 42.2698 5.992C42.0938 6.16 41.9818 6.388 41.9338 6.676L41.7778 7.576C41.7618 7.656 41.7538 7.76 41.7538 7.888C41.7538 8.008 41.8058 8.14 41.9098 8.284C42.0138 8.428 42.1938 8.5 42.4498 8.5C42.7138 8.5 42.9338 8.412 43.1098 8.236C43.2858 8.052 43.3978 7.832 43.4458 7.576L43.6018 6.676ZM51.878 8.464C52.062 8.464 52.226 8.424 52.37 8.344L52.31 9.7C51.934 10.012 51.506 10.168 51.026 10.168C50.298 10.168 49.826 10 49.61 9.664C49.466 9.44 49.394 9.204 49.394 8.956C49.394 8.7 49.41 8.476 49.442 8.284L50.162 4.228H52.202L51.53 8.008C51.522 8.056 51.518 8.1 51.518 8.14C51.518 8.356 51.638 8.464 51.878 8.464ZM50.402 2.272C50.402 1.76 50.514 1.388 50.738 1.156C50.97 0.916 51.326 0.796 51.806 0.796C52.478 0.796 52.814 1.092 52.814 1.684C52.814 2.188 52.698 2.556 52.466 2.788C52.242 3.02 51.886 3.136 51.398 3.136C50.734 3.136 50.402 2.848 50.402 2.272ZM55.6758 10.168C54.7478 10.168 54.0798 9.96 53.6718 9.544C53.3678 9.24 53.2158 8.832 53.2158 8.32C53.2158 8.152 53.2318 7.972 53.2638 7.78L54.0798 3.136L56.2758 2.224L55.9277 4.228H59.2398L58.9398 5.92H55.6278L55.3878 7.276C55.3558 7.428 55.3398 7.564 55.3398 7.684C55.3398 8.188 55.5798 8.44 56.0598 8.44C56.3158 8.44 56.5278 8.332 56.6958 8.116C56.8718 7.9 56.9918 7.612 57.0558 7.252H59.0478C58.7118 9.196 57.5878 10.168 55.6758 10.168Z" fill="black"/>
</svg>
